HIERARCHY
ROOT RootJoint
{
    OFFSET   0.000000   0.000000   0.000000
    CHANNELS 6 Xposition Yposition Zposition Xrotation Yrotation Zrotation
    JOINT pelvis_lowerback
    {
        OFFSET   0.000000   0.093605   0.000000
        CHANNELS 3 Xrotation Yrotation Zrotation
        JOINT lowerback_torso
        {
            OFFSET   0.000000   0.100000   0.000000
            CHANNELS 3 Xrotation Yrotation Zrotation
            JOINT torso_head
            {
                OFFSET   0.000000   0.282350   0.000000
                CHANNELS 3 Xrotation Yrotation Zrotation
                End Site
                {
                    OFFSET   0.000000   0.192650   0.000000
                }
            }
            JOINT rTorso_Clavicle
            {
                OFFSET  -0.001000   0.157500   0.000000
                CHANNELS 3 Xrotation Yrotation Zrotation
                JOINT rShoulder
                {
                    OFFSET  -0.117647   0.000000   0.000000
                    CHANNELS 3 Xrotation Yrotation Zrotation
                    JOINT rElbow
                    {
                        OFFSET  -0.245000   0.000000   0.000000
                        CHANNELS 3 Xrotation Yrotation Zrotation
                        JOINT rWrist
                        {
                            OFFSET  -0.240000   0.000000   0.000000
                            CHANNELS 3 Xrotation Yrotation Zrotation
                            End Site
                            {
                                OFFSET  -0.116353  -0.002500   0.000000
                            }
                        }
                    }
                }
            }
            JOINT lTorso_Clavicle
            {
                OFFSET   0.001000   0.157500   0.000000
                CHANNELS 3 Xrotation Yrotation Zrotation
                JOINT lShoulder
                {
                    OFFSET   0.117647   0.000000   0.000000
                    CHANNELS 3 Xrotation Yrotation Zrotation
                    JOINT lElbow
                    {
                        OFFSET   0.245000   0.000000   0.000000
                        CHANNELS 3 Xrotation Yrotation Zrotation
                        JOINT lWrist
                        {
                            OFFSET   0.240000   0.000000   0.000000
                            CHANNELS 3 Xrotation Yrotation Zrotation
                            End Site
                            {
                                OFFSET   0.116353  -0.002500   0.000000
                            }
                        }
                    }
                }
            }
        }
    }
    JOINT rHip
    {
        OFFSET  -0.100000  -0.051395   0.000000
        CHANNELS 3 Xrotation Yrotation Zrotation
        JOINT rKnee
        {
            OFFSET   0.000000  -0.410000   0.000000
            CHANNELS 3 Xrotation Yrotation Zrotation
            JOINT rAnkle
            {
                OFFSET   0.000000  -0.390000   0.000000
                CHANNELS 3 Xrotation Yrotation Zrotation
                JOINT rToeJoint
                {
                    OFFSET   0.000000  -0.050000   0.130000
                    CHANNELS 3 Xrotation Yrotation Zrotation
                    End Site
                    {
                        OFFSET  -0.010000   0.002000   0.060000
                    }
                }
            }
        }
    }
    JOINT lHip
    {
        OFFSET   0.100000  -0.051395   0.000000
        CHANNELS 3 Xrotation Yrotation Zrotation
        JOINT lKnee
        {
            OFFSET   0.000000  -0.410000   0.000000
            CHANNELS 3 Xrotation Yrotation Zrotation
            JOINT lAnkle
            {
                OFFSET   0.000000  -0.390000   0.000000
                CHANNELS 3 Xrotation Yrotation Zrotation
                JOINT lToeJoint
                {
                    OFFSET   0.000000  -0.050000   0.130000
                    CHANNELS 3 Xrotation Yrotation Zrotation
                    End Site
                    {
                        OFFSET   0.010000   0.002000   0.060000
                    }
                }
            }
        }
    }
}
MOTION
Frames: 10
Frame Time:   0.008333
 -2.376719   0.925631   3.975860   0.000000   0.000000   0.000000   0.000000   0.000000   0.000000   0.000000   0.000000   0.000000   0.000000   0.000000   0.000000   0.000000   0.000000   0.000000   0.000000   0.000000   0.000000   0.000000   0.000000   0.000000   0.000000   0.000000   0.000000   0.000000   0.000000   0.000000   0.000000   0.000000   0.000000   0.000000   0.000000   0.000000   0.000000   0.000000   0.000000   0.000000   0.000000   0.000000   0.000000   0.000000   0.000000   0.000000   0.000000   0.000000   0.000000   0.000000   0.000000   0.000000   0.000000   0.000000   0.000000   0.000000   0.000000   0.000000   0.000000   0.000000   0.000000   0.000000   0.000000
 -2.377055   0.926398   3.975256   0.433115   0.342854  -0.257914  -0.620725  -0.091751   0.084800   0.211129  -0.279380   0.209616  -0.168018   0.046663   0.087402   0.233407  -0.234003   0.852947   1.123217   0.480112   1.707770   0.006633   0.290993  -0.003513   0.389552  -0.474325  -2.941448   0.286524   0.225881  -0.784275   1.753074  -0.484130  -1.614137   0.013179  -0.633962   0.011480   0.471517   0.579060   2.537915  -0.683200  -0.312133   0.145813   0.333764   0.000315   0.000097   0.001467  -0.345594   0.152773  -0.224990   0.000086   0.000613  -1.045354  -0.138534   0.493328   1.669892  -0.003461   0.003115  -1.200386   0.323555  -0.145303   0.223653  -0.000187   0.001037
 -2.377429   0.927646   3.974597   0.800508   0.695316  -0.570160  -1.190185  -0.195311   0.183915   0.427054  -0.585865   0.474662  -0.337866   0.091600   0.177099   0.463713  -0.360823   2.512140   2.207284   1.057955   4.067964   0.016133   0.592274  -0.006303   0.806377  -0.828349  -5.092314   0.571956   0.298342  -2.294853   3.459884  -1.127375  -3.825223   0.031471  -1.274881   0.020551   0.991940   0.917047   4.332996  -1.372302  -0.604442   0.189151   0.653725   0.000971   0.000263   0.003539  -0.671556   0.294754  -0.448023  -0.000160   0.000992  -1.965197  -0.265251   1.180440   3.401059  -0.008396   0.006538  -2.315187   0.637725  -0.271292   0.405192  -0.000560   0.001718
 -2.377747   0.928920   3.973949   1.132913   1.034073  -0.889064  -1.721623  -0.317680   0.293353   0.628610  -0.899242   0.756825  -0.503235   0.133760   0.258022   0.677920  -0.404330   4.642614   3.240231   1.728227   6.854442   0.026114   0.891153  -0.008306   1.211841  -1.055941  -6.304270   0.836258   0.259520  -4.232747   5.104628  -1.916517  -6.422347   0.050090  -1.899270   0.027205   1.498531   1.065340   5.277336  -2.078145  -0.873620   0.094674   0.935249   0.001746   0.000398   0.004610  -0.976752   0.426198  -0.665123  -0.000630   0.001215  -2.752050  -0.392944   1.972041   5.055563  -0.013407   0.009443  -3.353358   0.936035  -0.381448   0.570925  -0.000992   0.002170
 -2.377995   0.929891   3.973348   1.443416   1.351842  -1.201563  -2.219380  -0.456796   0.413762   0.812088  -1.215024   1.046330  -0.662776   0.172961   0.331099   0.873869  -0.393262   7.023348   4.219097   2.482685   9.920750   0.035277   1.183321  -0.009658   1.609547  -1.177598  -6.823558   1.076230   0.145988  -6.399236   6.684323  -2.843044  -9.268101   0.066666  -2.502369   0.032007   1.992949   1.064888   5.599297  -2.800731  -1.120680  -0.126868   1.177327   0.002471   0.000479   0.004785  -1.262835   0.547675  -0.873235  -0.001207   0.001332  -3.423608  -0.522669   2.830645   6.620042  -0.017959   0.011741  -4.321956   1.217956  -0.477912   0.717165  -0.001387   0.002413
 -2.378184   0.930313   3.972819   1.737473   1.643110  -1.502854  -2.686481  -0.609435   0.544438   0.978097  -1.530571   1.339604  -0.814846   0.209367   0.398226   1.050822  -0.349582   9.510578   5.140981   3.310870  13.169038   0.042915   1.465077  -0.010472   1.999194  -1.221428  -6.881938   1.289677  -0.015851  -8.661901   8.195007  -3.896025 -12.268336   0.080099  -3.081016   0.035402   2.474830   0.952359   5.512855  -3.534805  -1.345906  -0.455393   1.383552   0.003054   0.000505   0.004259  -1.531026   0.659949  -1.070667  -0.001800   0.001379  -3.993727  -0.653352   3.733861   8.097158  -0.021836   0.013440  -5.225901   1.483760  -0.562368   0.846079  -0.001713   0.002497
 -2.378364   0.929992   3.972383   2.017832   1.901381  -1.787768  -3.125404  -0.773230   0.677158   1.128334  -1.844957   1.621059  -0.958672   0.243287   0.464596   1.209519  -0.287865  12.018493   6.003190   4.203990  16.539741   0.048755   1.734168  -0.010850   2.378495  -1.211175  -6.641353   1.476937  -0.210590 -10.979155   9.560768  -5.010553 -15.234595   0.089875  -3.636562   0.037385   2.945142   0.737979   5.105406  -4.275023  -1.549499  -0.869292   1.558265   0.003453   0.000482   0.003146  -1.782423   0.763735  -1.256982  -0.002341   0.001387  -4.473404  -0.783311   4.666076   9.491750  -0.025013   0.014554  -6.069528   1.733921  -0.636293   0.960252  -0.001962   0.002466
 -2.378441   0.928248   3.971692   2.167792   2.164055  -2.066269  -3.224434  -0.972938   0.890498   1.135703  -2.095820   1.842988  -1.245524   0.141759   0.486336   1.221326  -0.031035  14.032313   6.689331   4.898339  19.581124   0.053829   2.054045  -0.011188   2.659065  -1.181709  -5.149085   1.637205  -0.475190 -12.644782  10.821973  -6.329133 -18.085857   0.093517  -4.177810   0.039184   3.341014   0.438952   3.743425  -4.937883  -2.032868  -1.249792   1.979060   0.005000  -0.000461   0.252531  -2.116277   1.127425  -1.266285  -0.001894   0.001154  -4.732082  -0.807961   5.525396  10.349045  -0.023954   0.014786  -6.987452   2.076493  -0.755076   1.067388  -0.001992   0.002592
 -2.378471   0.925274   3.970919   2.316078   2.446682  -2.329497  -3.288279  -1.180672   1.110194   1.137575  -2.345107   2.057201  -1.521264   0.042100   0.504968   1.198372   0.262566  15.737429   7.286377   5.606779  22.292985   0.055676   2.362678  -0.011317   2.925526  -1.112063  -3.741792   1.748182  -0.792677 -14.023816  11.929471  -7.657181 -20.605467   0.092974  -4.703354   0.040021   3.726608   0.040113   2.483159  -5.560874  -2.498390  -1.603315   2.408429   0.006084  -0.001114   0.494126  -2.430140   1.468275  -1.237948  -0.001458   0.000799  -5.013499  -0.830550   6.302974  11.069320  -0.022024   0.014596  -7.851160   2.398864  -0.860314   1.141855  -0.001850   0.002505
 -2.378475   0.921192   3.970161   2.461834   2.721677  -2.577179  -3.337308  -1.379090   1.327120   1.134980  -2.583515   2.265804  -1.776019  -0.051171   0.523965   1.150793   0.565080  17.211057   7.806651   6.310676  24.734430   0.055344   2.658631  -0.011221   3.184359  -1.009689  -2.565262   1.820244  -1.126115 -15.190484  12.904677  -8.957744 -22.849286   0.089562  -5.203949   0.039850   4.095614  -0.397422   1.458696  -6.131079  -2.929333  -1.926242   2.816291   0.006661  -0.001518   0.721885  -2.721698   1.787911  -1.207384  -0.001112   0.000517  -5.311550  -0.854956   7.005199  11.713563  -0.019839   0.014072  -8.658625   2.700631  -0.953772   1.207436  -0.001678   0.002366
